<mxfile host="app.diagrams.net" modified="2024-03-05T22:38:19.063Z" agent="Mozilla/5.0 (Macintosh; Intel Mac OS X 10_15_7) AppleWebKit/537.36 (KHTML, like Gecko) Chrome/120.0.0.0 Safari/537.36" etag="3d7SXd2XaH1vDdOaP_38" version="23.1.5" type="device">
  <diagram name="Page-1" id="K_NYcB5xI5pQLdcxHXSw">
    <mxGraphModel dx="1500" dy="1160" grid="0" gridSize="10" guides="0" tooltips="1" connect="1" arrows="1" fold="1" page="0" pageScale="1" pageWidth="850" pageHeight="1100" math="0" shadow="0">
      <root>
        <mxCell id="0" />
        <mxCell id="1" parent="0" />
        <mxCell id="aRzllNHfJS_ZqXTawcoJ-15" value="" style="edgeStyle=none;rounded=0;orthogonalLoop=1;jettySize=auto;html=1;strokeColor=default;align=center;verticalAlign=middle;fontFamily=Helvetica;fontSize=11;fontColor=default;labelBackgroundColor=default;endArrow=none;endFill=0;" edge="1" parent="1" source="AveuHuQOkIJUVtSDtsbW-2" target="AveuHuQOkIJUVtSDtsbW-50">
          <mxGeometry relative="1" as="geometry" />
        </mxCell>
        <mxCell id="AveuHuQOkIJUVtSDtsbW-2" value="Industry" style="whiteSpace=wrap;html=1;" parent="1" vertex="1">
          <mxGeometry x="490" y="290" width="120" height="60" as="geometry" />
        </mxCell>
        <mxCell id="aRzllNHfJS_ZqXTawcoJ-16" value="" style="edgeStyle=none;rounded=0;orthogonalLoop=1;jettySize=auto;html=1;strokeColor=default;align=center;verticalAlign=middle;fontFamily=Helvetica;fontSize=11;fontColor=default;labelBackgroundColor=default;endArrow=none;endFill=0;" edge="1" parent="1" source="AveuHuQOkIJUVtSDtsbW-3" target="AveuHuQOkIJUVtSDtsbW-17">
          <mxGeometry relative="1" as="geometry" />
        </mxCell>
        <mxCell id="AveuHuQOkIJUVtSDtsbW-3" value="Industry Mapping" style="whiteSpace=wrap;html=1;" parent="1" vertex="1">
          <mxGeometry x="680" y="510" width="120" height="60" as="geometry" />
        </mxCell>
        <mxCell id="AveuHuQOkIJUVtSDtsbW-11" value="" style="edgeStyle=none;shape=connector;rounded=0;orthogonalLoop=1;jettySize=auto;html=1;labelBackgroundColor=default;strokeColor=default;align=center;verticalAlign=middle;fontFamily=Helvetica;fontSize=11;fontColor=default;endArrow=none;endFill=0;entryX=0;entryY=0.5;entryDx=0;entryDy=0;exitX=1;exitY=1;exitDx=0;exitDy=0;" parent="1" source="AveuHuQOkIJUVtSDtsbW-4" target="AveuHuQOkIJUVtSDtsbW-12" edge="1">
          <mxGeometry relative="1" as="geometry">
            <mxPoint x="1000" y="535" as="targetPoint" />
          </mxGeometry>
        </mxCell>
        <mxCell id="AveuHuQOkIJUVtSDtsbW-15" style="edgeStyle=none;shape=connector;rounded=0;orthogonalLoop=1;jettySize=auto;html=1;entryX=0;entryY=0.5;entryDx=0;entryDy=0;labelBackgroundColor=default;strokeColor=default;align=center;verticalAlign=middle;fontFamily=Helvetica;fontSize=11;fontColor=default;endArrow=none;endFill=0;exitX=1;exitY=0.5;exitDx=0;exitDy=0;" parent="1" source="AveuHuQOkIJUVtSDtsbW-4" target="AveuHuQOkIJUVtSDtsbW-14" edge="1">
          <mxGeometry relative="1" as="geometry" />
        </mxCell>
        <mxCell id="AveuHuQOkIJUVtSDtsbW-51" style="edgeStyle=none;shape=connector;rounded=0;orthogonalLoop=1;jettySize=auto;html=1;exitX=0.5;exitY=1;exitDx=0;exitDy=0;entryX=0.5;entryY=0;entryDx=0;entryDy=0;labelBackgroundColor=default;strokeColor=default;align=center;verticalAlign=middle;fontFamily=Helvetica;fontSize=11;fontColor=default;endArrow=none;endFill=0;" parent="1" source="AveuHuQOkIJUVtSDtsbW-4" target="AveuHuQOkIJUVtSDtsbW-49" edge="1">
          <mxGeometry relative="1" as="geometry" />
        </mxCell>
        <mxCell id="AveuHuQOkIJUVtSDtsbW-4" value="Fuel Emissions" style="whiteSpace=wrap;html=1;" parent="1" vertex="1">
          <mxGeometry x="910" y="289" width="120" height="60" as="geometry" />
        </mxCell>
        <mxCell id="AveuHuQOkIJUVtSDtsbW-7" value="" style="rounded=0;orthogonalLoop=1;jettySize=auto;html=1;endArrow=none;endFill=0;" parent="1" source="AveuHuQOkIJUVtSDtsbW-5" target="AveuHuQOkIJUVtSDtsbW-6" edge="1">
          <mxGeometry relative="1" as="geometry" />
        </mxCell>
        <mxCell id="AveuHuQOkIJUVtSDtsbW-5" value="Province" style="whiteSpace=wrap;html=1;" parent="1" vertex="1">
          <mxGeometry x="443" y="40" width="120" height="60" as="geometry" />
        </mxCell>
        <mxCell id="AveuHuQOkIJUVtSDtsbW-6" value="Population" style="ellipse;whiteSpace=wrap;html=1;" parent="1" vertex="1">
          <mxGeometry x="418" y="-17" width="80" height="40" as="geometry" />
        </mxCell>
        <mxCell id="AveuHuQOkIJUVtSDtsbW-61" style="edgeStyle=none;shape=connector;rounded=0;orthogonalLoop=1;jettySize=auto;html=1;exitX=0.5;exitY=1;exitDx=0;exitDy=0;entryX=0.75;entryY=0;entryDx=0;entryDy=0;labelBackgroundColor=default;strokeColor=default;align=center;verticalAlign=middle;fontFamily=Helvetica;fontSize=11;fontColor=default;endArrow=none;endFill=0;" parent="1" source="AveuHuQOkIJUVtSDtsbW-8" target="AveuHuQOkIJUVtSDtsbW-5" edge="1">
          <mxGeometry relative="1" as="geometry" />
        </mxCell>
        <mxCell id="AveuHuQOkIJUVtSDtsbW-8" value="&lt;u&gt;Name&lt;/u&gt;" style="ellipse;whiteSpace=wrap;html=1;" parent="1" vertex="1">
          <mxGeometry x="515" y="-17" width="80" height="40" as="geometry" />
        </mxCell>
        <mxCell id="AveuHuQOkIJUVtSDtsbW-12" value="&lt;u&gt;Industry ID&lt;/u&gt;" style="ellipse;whiteSpace=wrap;html=1;" parent="1" vertex="1">
          <mxGeometry x="1069" y="354" width="80" height="40" as="geometry" />
        </mxCell>
        <mxCell id="AveuHuQOkIJUVtSDtsbW-13" value="Amount" style="ellipse;whiteSpace=wrap;html=1;" parent="1" vertex="1">
          <mxGeometry x="1070" y="251" width="80" height="40" as="geometry" />
        </mxCell>
        <mxCell id="AveuHuQOkIJUVtSDtsbW-14" value="&lt;u&gt;Year&lt;/u&gt;" style="ellipse;whiteSpace=wrap;html=1;" parent="1" vertex="1">
          <mxGeometry x="1069" y="301" width="80" height="40" as="geometry" />
        </mxCell>
        <mxCell id="AveuHuQOkIJUVtSDtsbW-16" style="edgeStyle=none;shape=connector;rounded=0;orthogonalLoop=1;jettySize=auto;html=1;entryX=1;entryY=0.25;entryDx=0;entryDy=0;labelBackgroundColor=default;strokeColor=default;align=center;verticalAlign=middle;fontFamily=Helvetica;fontSize=11;fontColor=default;endArrow=none;endFill=0;exitX=0;exitY=0.5;exitDx=0;exitDy=0;" parent="1" source="AveuHuQOkIJUVtSDtsbW-13" target="AveuHuQOkIJUVtSDtsbW-4" edge="1">
          <mxGeometry relative="1" as="geometry" />
        </mxCell>
        <mxCell id="AveuHuQOkIJUVtSDtsbW-17" value="&lt;u&gt;Industry ID&lt;/u&gt;" style="ellipse;whiteSpace=wrap;html=1;" parent="1" vertex="1">
          <mxGeometry x="700" y="620" width="80" height="40" as="geometry" />
        </mxCell>
        <mxCell id="aRzllNHfJS_ZqXTawcoJ-20" style="edgeStyle=none;rounded=0;orthogonalLoop=1;jettySize=auto;html=1;exitX=0;exitY=0.5;exitDx=0;exitDy=0;entryX=1;entryY=1;entryDx=0;entryDy=0;strokeColor=default;align=center;verticalAlign=middle;fontFamily=Helvetica;fontSize=11;fontColor=default;labelBackgroundColor=default;endArrow=none;endFill=0;" edge="1" parent="1" source="AveuHuQOkIJUVtSDtsbW-18" target="AveuHuQOkIJUVtSDtsbW-3">
          <mxGeometry relative="1" as="geometry" />
        </mxCell>
        <mxCell id="AveuHuQOkIJUVtSDtsbW-18" value="Good Type" style="ellipse;whiteSpace=wrap;html=1;" parent="1" vertex="1">
          <mxGeometry x="860" y="560" width="80" height="40" as="geometry" />
        </mxCell>
        <mxCell id="aRzllNHfJS_ZqXTawcoJ-18" style="edgeStyle=none;rounded=0;orthogonalLoop=1;jettySize=auto;html=1;exitX=1;exitY=0;exitDx=0;exitDy=0;entryX=0.25;entryY=1;entryDx=0;entryDy=0;strokeColor=default;align=center;verticalAlign=middle;fontFamily=Helvetica;fontSize=11;fontColor=default;labelBackgroundColor=default;endArrow=none;endFill=0;" edge="1" parent="1" source="AveuHuQOkIJUVtSDtsbW-19" target="AveuHuQOkIJUVtSDtsbW-3">
          <mxGeometry relative="1" as="geometry" />
        </mxCell>
        <mxCell id="AveuHuQOkIJUVtSDtsbW-19" value="NAICS" style="ellipse;whiteSpace=wrap;html=1;" parent="1" vertex="1">
          <mxGeometry x="600" y="600" width="80" height="40" as="geometry" />
        </mxCell>
        <mxCell id="aRzllNHfJS_ZqXTawcoJ-19" style="edgeStyle=none;rounded=0;orthogonalLoop=1;jettySize=auto;html=1;exitX=0;exitY=0;exitDx=0;exitDy=0;entryX=0.75;entryY=1;entryDx=0;entryDy=0;strokeColor=default;align=center;verticalAlign=middle;fontFamily=Helvetica;fontSize=11;fontColor=default;labelBackgroundColor=default;endArrow=none;endFill=0;" edge="1" parent="1" source="AveuHuQOkIJUVtSDtsbW-20" target="AveuHuQOkIJUVtSDtsbW-3">
          <mxGeometry relative="1" as="geometry" />
        </mxCell>
        <mxCell id="AveuHuQOkIJUVtSDtsbW-20" value="IOIC" style="ellipse;whiteSpace=wrap;html=1;" parent="1" vertex="1">
          <mxGeometry x="800" y="600" width="80" height="40" as="geometry" />
        </mxCell>
        <mxCell id="aRzllNHfJS_ZqXTawcoJ-17" style="edgeStyle=none;rounded=0;orthogonalLoop=1;jettySize=auto;html=1;entryX=0;entryY=1;entryDx=0;entryDy=0;strokeColor=default;align=center;verticalAlign=middle;fontFamily=Helvetica;fontSize=11;fontColor=default;labelBackgroundColor=default;endArrow=none;endFill=0;" edge="1" parent="1" source="AveuHuQOkIJUVtSDtsbW-21" target="AveuHuQOkIJUVtSDtsbW-3">
          <mxGeometry relative="1" as="geometry" />
        </mxCell>
        <mxCell id="AveuHuQOkIJUVtSDtsbW-21" value="Name" style="ellipse;whiteSpace=wrap;html=1;" parent="1" vertex="1">
          <mxGeometry x="530" y="560" width="80" height="40" as="geometry" />
        </mxCell>
        <mxCell id="AveuHuQOkIJUVtSDtsbW-67" style="edgeStyle=none;shape=connector;rounded=0;orthogonalLoop=1;jettySize=auto;html=1;exitX=0;exitY=0.5;exitDx=0;exitDy=0;labelBackgroundColor=default;strokeColor=default;align=center;verticalAlign=middle;fontFamily=Helvetica;fontSize=11;fontColor=default;endArrow=none;endFill=0;" parent="1" source="AveuHuQOkIJUVtSDtsbW-27" edge="1">
          <mxGeometry relative="1" as="geometry">
            <mxPoint x="610" y="290" as="targetPoint" />
          </mxGeometry>
        </mxCell>
        <mxCell id="AveuHuQOkIJUVtSDtsbW-27" value="&lt;u&gt;Industry ID&lt;/u&gt;" style="ellipse;whiteSpace=wrap;html=1;" parent="1" vertex="1">
          <mxGeometry x="644" y="264" width="80" height="40" as="geometry" />
        </mxCell>
        <mxCell id="AveuHuQOkIJUVtSDtsbW-66" style="edgeStyle=none;shape=connector;rounded=0;orthogonalLoop=1;jettySize=auto;html=1;exitX=0.5;exitY=1;exitDx=0;exitDy=0;entryX=1;entryY=0;entryDx=0;entryDy=0;labelBackgroundColor=default;strokeColor=default;align=center;verticalAlign=middle;fontFamily=Helvetica;fontSize=11;fontColor=default;endArrow=none;endFill=0;" parent="1" source="AveuHuQOkIJUVtSDtsbW-28" target="AveuHuQOkIJUVtSDtsbW-2" edge="1">
          <mxGeometry relative="1" as="geometry" />
        </mxCell>
        <mxCell id="AveuHuQOkIJUVtSDtsbW-28" value="Name" style="ellipse;whiteSpace=wrap;html=1;" parent="1" vertex="1">
          <mxGeometry x="622" y="216" width="80" height="40" as="geometry" />
        </mxCell>
        <mxCell id="AveuHuQOkIJUVtSDtsbW-68" style="edgeStyle=none;shape=connector;rounded=0;orthogonalLoop=1;jettySize=auto;html=1;exitX=0.5;exitY=1;exitDx=0;exitDy=0;labelBackgroundColor=default;strokeColor=default;align=center;verticalAlign=middle;fontFamily=Helvetica;fontSize=11;fontColor=default;endArrow=none;endFill=0;" parent="1" source="AveuHuQOkIJUVtSDtsbW-29" edge="1">
          <mxGeometry relative="1" as="geometry">
            <mxPoint x="610" y="290" as="targetPoint" />
          </mxGeometry>
        </mxCell>
        <mxCell id="AveuHuQOkIJUVtSDtsbW-29" value="Good Type" style="ellipse;whiteSpace=wrap;html=1;" parent="1" vertex="1">
          <mxGeometry x="536" y="224" width="80" height="40" as="geometry" />
        </mxCell>
        <mxCell id="AveuHuQOkIJUVtSDtsbW-36" value="" style="edgeStyle=none;shape=connector;rounded=0;orthogonalLoop=1;jettySize=auto;html=1;labelBackgroundColor=default;strokeColor=default;align=center;verticalAlign=middle;fontFamily=Helvetica;fontSize=11;fontColor=default;endArrow=none;endFill=0;entryX=0.5;entryY=0;entryDx=0;entryDy=0;" parent="1" source="AveuHuQOkIJUVtSDtsbW-38" target="AveuHuQOkIJUVtSDtsbW-39" edge="1">
          <mxGeometry relative="1" as="geometry">
            <mxPoint x="250" y="400" as="targetPoint" />
          </mxGeometry>
        </mxCell>
        <mxCell id="AveuHuQOkIJUVtSDtsbW-37" style="edgeStyle=none;shape=connector;rounded=0;orthogonalLoop=1;jettySize=auto;html=1;entryX=0.5;entryY=0;entryDx=0;entryDy=0;labelBackgroundColor=default;strokeColor=default;align=center;verticalAlign=middle;fontFamily=Helvetica;fontSize=11;fontColor=default;endArrow=none;endFill=0;" parent="1" source="AveuHuQOkIJUVtSDtsbW-38" target="AveuHuQOkIJUVtSDtsbW-41" edge="1">
          <mxGeometry relative="1" as="geometry" />
        </mxCell>
        <mxCell id="AveuHuQOkIJUVtSDtsbW-47" style="edgeStyle=none;shape=connector;rounded=0;orthogonalLoop=1;jettySize=auto;html=1;entryX=0;entryY=0.5;entryDx=0;entryDy=0;labelBackgroundColor=default;strokeColor=default;align=center;verticalAlign=middle;fontFamily=Helvetica;fontSize=11;fontColor=default;endArrow=classic;endFill=1;strokeWidth=3;" parent="1" source="AveuHuQOkIJUVtSDtsbW-38" target="AveuHuQOkIJUVtSDtsbW-46" edge="1">
          <mxGeometry relative="1" as="geometry" />
        </mxCell>
        <mxCell id="AveuHuQOkIJUVtSDtsbW-38" value="Employee" style="whiteSpace=wrap;html=1;strokeWidth=3;" parent="1" vertex="1">
          <mxGeometry x="190" y="290" width="120" height="60" as="geometry" />
        </mxCell>
        <mxCell id="AveuHuQOkIJUVtSDtsbW-39" value="Industry ID" style="ellipse;whiteSpace=wrap;html=1;" parent="1" vertex="1">
          <mxGeometry x="130" y="360" width="80" height="40" as="geometry" />
        </mxCell>
        <mxCell id="AveuHuQOkIJUVtSDtsbW-40" value="Number" style="ellipse;whiteSpace=wrap;html=1;" parent="1" vertex="1">
          <mxGeometry x="290" y="360" width="80" height="40" as="geometry" />
        </mxCell>
        <mxCell id="AveuHuQOkIJUVtSDtsbW-41" value="Year" style="ellipse;whiteSpace=wrap;html=1;" parent="1" vertex="1">
          <mxGeometry x="210" y="380" width="80" height="40" as="geometry" />
        </mxCell>
        <mxCell id="AveuHuQOkIJUVtSDtsbW-42" style="edgeStyle=none;shape=connector;rounded=0;orthogonalLoop=1;jettySize=auto;html=1;entryX=1;entryY=1;entryDx=0;entryDy=0;labelBackgroundColor=default;strokeColor=default;align=center;verticalAlign=middle;fontFamily=Helvetica;fontSize=11;fontColor=default;endArrow=none;endFill=0;exitX=0.5;exitY=0;exitDx=0;exitDy=0;" parent="1" source="AveuHuQOkIJUVtSDtsbW-40" target="AveuHuQOkIJUVtSDtsbW-38" edge="1">
          <mxGeometry relative="1" as="geometry" />
        </mxCell>
        <mxCell id="AveuHuQOkIJUVtSDtsbW-43" value="" style="edgeStyle=none;orthogonalLoop=1;jettySize=auto;html=1;rounded=0;labelBackgroundColor=default;strokeColor=default;align=center;verticalAlign=middle;fontFamily=Helvetica;fontSize=11;fontColor=default;endArrow=none;endFill=0;shape=connector;dashed=1;" parent="1" edge="1">
          <mxGeometry width="100" relative="1" as="geometry">
            <mxPoint x="140" y="389" as="sourcePoint" />
            <mxPoint x="200" y="389" as="targetPoint" />
            <Array as="points" />
          </mxGeometry>
        </mxCell>
        <mxCell id="AveuHuQOkIJUVtSDtsbW-44" value="" style="edgeStyle=none;orthogonalLoop=1;jettySize=auto;html=1;rounded=0;labelBackgroundColor=default;strokeColor=default;align=center;verticalAlign=middle;fontFamily=Helvetica;fontSize=11;fontColor=default;endArrow=none;endFill=0;shape=connector;dashed=1;" parent="1" edge="1">
          <mxGeometry width="100" relative="1" as="geometry">
            <mxPoint x="220" y="410" as="sourcePoint" />
            <mxPoint x="280" y="410" as="targetPoint" />
            <Array as="points" />
          </mxGeometry>
        </mxCell>
        <mxCell id="AveuHuQOkIJUVtSDtsbW-48" style="edgeStyle=none;shape=connector;rounded=0;orthogonalLoop=1;jettySize=auto;html=1;entryX=0;entryY=0.5;entryDx=0;entryDy=0;labelBackgroundColor=default;strokeColor=default;align=center;verticalAlign=middle;fontFamily=Helvetica;fontSize=11;fontColor=default;endArrow=none;endFill=0;" parent="1" source="AveuHuQOkIJUVtSDtsbW-46" target="AveuHuQOkIJUVtSDtsbW-2" edge="1">
          <mxGeometry relative="1" as="geometry" />
        </mxCell>
        <mxCell id="AveuHuQOkIJUVtSDtsbW-46" value="Works in" style="rhombus;whiteSpace=wrap;html=1;fontFamily=Helvetica;fontSize=11;fontColor=default;strokeWidth=3;" parent="1" vertex="1">
          <mxGeometry x="370" y="280" width="80" height="80" as="geometry" />
        </mxCell>
        <mxCell id="AveuHuQOkIJUVtSDtsbW-52" style="edgeStyle=none;shape=connector;rounded=0;orthogonalLoop=1;jettySize=auto;html=1;exitX=0.5;exitY=1;exitDx=0;exitDy=0;entryX=1;entryY=0.5;entryDx=0;entryDy=0;labelBackgroundColor=default;strokeColor=default;align=center;verticalAlign=middle;fontFamily=Helvetica;fontSize=11;fontColor=default;endArrow=none;endFill=0;" parent="1" source="AveuHuQOkIJUVtSDtsbW-49" target="AveuHuQOkIJUVtSDtsbW-3" edge="1">
          <mxGeometry relative="1" as="geometry" />
        </mxCell>
        <mxCell id="AveuHuQOkIJUVtSDtsbW-49" value="Has IOIC Mapping" style="rhombus;whiteSpace=wrap;html=1;fontFamily=Helvetica;fontSize=11;fontColor=default;" parent="1" vertex="1">
          <mxGeometry x="930" y="410" width="80" height="80" as="geometry" />
        </mxCell>
        <mxCell id="AveuHuQOkIJUVtSDtsbW-59" style="edgeStyle=none;shape=connector;rounded=0;orthogonalLoop=1;jettySize=auto;html=1;exitX=0.5;exitY=1;exitDx=0;exitDy=0;entryX=0;entryY=0.5;entryDx=0;entryDy=0;labelBackgroundColor=default;strokeColor=default;align=center;verticalAlign=middle;fontFamily=Helvetica;fontSize=11;fontColor=default;endArrow=none;endFill=0;" parent="1" source="AveuHuQOkIJUVtSDtsbW-50" target="AveuHuQOkIJUVtSDtsbW-3" edge="1">
          <mxGeometry relative="1" as="geometry" />
        </mxCell>
        <mxCell id="AveuHuQOkIJUVtSDtsbW-50" value="Has NAICS Mapping" style="rhombus;whiteSpace=wrap;html=1;fontFamily=Helvetica;fontSize=11;fontColor=default;" parent="1" vertex="1">
          <mxGeometry x="510" y="410" width="80" height="80" as="geometry" />
        </mxCell>
        <mxCell id="AveuHuQOkIJUVtSDtsbW-65" style="edgeStyle=none;shape=connector;rounded=0;orthogonalLoop=1;jettySize=auto;html=1;exitX=1;exitY=0.5;exitDx=0;exitDy=0;entryX=0;entryY=0.5;entryDx=0;entryDy=0;labelBackgroundColor=default;strokeColor=default;align=center;verticalAlign=middle;fontFamily=Helvetica;fontSize=11;fontColor=default;endArrow=none;endFill=0;" parent="1" source="AveuHuQOkIJUVtSDtsbW-63" target="AveuHuQOkIJUVtSDtsbW-4" edge="1">
          <mxGeometry relative="1" as="geometry">
            <mxPoint x="835" y="326" as="sourcePoint" />
          </mxGeometry>
        </mxCell>
        <mxCell id="AveuHuQOkIJUVtSDtsbW-63" value="Generates" style="rhombus;whiteSpace=wrap;html=1;fontFamily=Helvetica;fontSize=11;fontColor=default;" parent="1" vertex="1">
          <mxGeometry x="754" y="279" width="80" height="80" as="geometry" />
        </mxCell>
        <mxCell id="bmwnz22091FMJtZ9aRnY-2" style="rounded=0;orthogonalLoop=1;jettySize=auto;html=1;entryX=0.5;entryY=1;entryDx=0;entryDy=0;endArrow=none;endFill=0;endSize=1;exitX=0.5;exitY=0;exitDx=0;exitDy=0;" parent="1" source="bmwnz22091FMJtZ9aRnY-1" target="AveuHuQOkIJUVtSDtsbW-5" edge="1">
          <mxGeometry relative="1" as="geometry">
            <mxPoint x="502.9999999999998" y="123" as="sourcePoint" />
          </mxGeometry>
        </mxCell>
        <mxCell id="bmwnz22091FMJtZ9aRnY-1" value="Invests In" style="rhombus;whiteSpace=wrap;html=1;fontFamily=Helvetica;fontSize=11;fontColor=default;" parent="1" vertex="1">
          <mxGeometry x="463" y="140" width="80" height="80" as="geometry" />
        </mxCell>
        <mxCell id="bmwnz22091FMJtZ9aRnY-4" style="edgeStyle=none;rounded=0;orthogonalLoop=1;jettySize=auto;html=1;entryX=0.103;entryY=0.017;entryDx=0;entryDy=0;entryPerimeter=0;strokeColor=default;align=center;verticalAlign=middle;fontFamily=Helvetica;fontSize=11;fontColor=default;labelBackgroundColor=default;endArrow=none;endFill=0;endSize=1;" parent="1" source="bmwnz22091FMJtZ9aRnY-1" target="AveuHuQOkIJUVtSDtsbW-2" edge="1">
          <mxGeometry relative="1" as="geometry" />
        </mxCell>
        <mxCell id="aRzllNHfJS_ZqXTawcoJ-2" value="" style="rounded=0;orthogonalLoop=1;jettySize=auto;html=1;endArrow=none;endFill=0;exitX=1;exitY=0.5;exitDx=0;exitDy=0;" edge="1" parent="1" source="aRzllNHfJS_ZqXTawcoJ-3" target="aRzllNHfJS_ZqXTawcoJ-4">
          <mxGeometry relative="1" as="geometry" />
        </mxCell>
        <mxCell id="aRzllNHfJS_ZqXTawcoJ-3" value="Household" style="whiteSpace=wrap;html=1;" vertex="1" parent="1">
          <mxGeometry x="908" y="40" width="120" height="60" as="geometry" />
        </mxCell>
        <mxCell id="aRzllNHfJS_ZqXTawcoJ-4" value="Province" style="ellipse;whiteSpace=wrap;html=1;" vertex="1" parent="1">
          <mxGeometry x="1062" y="19" width="80" height="40" as="geometry" />
        </mxCell>
        <mxCell id="aRzllNHfJS_ZqXTawcoJ-5" style="edgeStyle=none;shape=connector;rounded=0;orthogonalLoop=1;jettySize=auto;html=1;exitX=0.5;exitY=1;exitDx=0;exitDy=0;entryX=1;entryY=0.5;entryDx=0;entryDy=0;labelBackgroundColor=default;strokeColor=default;align=center;verticalAlign=middle;fontFamily=Helvetica;fontSize=11;fontColor=default;endArrow=none;endFill=0;" edge="1" parent="1" source="aRzllNHfJS_ZqXTawcoJ-6" target="aRzllNHfJS_ZqXTawcoJ-3">
          <mxGeometry relative="1" as="geometry" />
        </mxCell>
        <mxCell id="aRzllNHfJS_ZqXTawcoJ-6" value="Emissions" style="ellipse;whiteSpace=wrap;html=1;" vertex="1" parent="1">
          <mxGeometry x="1065" y="83" width="80" height="40" as="geometry" />
        </mxCell>
        <mxCell id="aRzllNHfJS_ZqXTawcoJ-8" style="edgeStyle=none;shape=connector;rounded=0;orthogonalLoop=1;jettySize=auto;html=1;entryX=0;entryY=0.5;entryDx=0;entryDy=0;labelBackgroundColor=default;strokeColor=default;align=center;verticalAlign=middle;fontFamily=Helvetica;fontSize=11;fontColor=default;endArrow=none;endFill=0;exitX=1;exitY=0.5;exitDx=0;exitDy=0;" edge="1" parent="1" source="AveuHuQOkIJUVtSDtsbW-2" target="AveuHuQOkIJUVtSDtsbW-63">
          <mxGeometry relative="1" as="geometry">
            <mxPoint x="654" y="355" as="sourcePoint" />
            <mxPoint x="741" y="317" as="targetPoint" />
          </mxGeometry>
        </mxCell>
        <mxCell id="aRzllNHfJS_ZqXTawcoJ-10" style="rounded=0;orthogonalLoop=1;jettySize=auto;html=1;entryX=0;entryY=0.5;entryDx=0;entryDy=0;endArrow=none;endFill=0;startArrow=classicThin;startFill=1;strokeWidth=3;" edge="1" parent="1" source="aRzllNHfJS_ZqXTawcoJ-9" target="aRzllNHfJS_ZqXTawcoJ-3">
          <mxGeometry relative="1" as="geometry" />
        </mxCell>
        <mxCell id="aRzllNHfJS_ZqXTawcoJ-11" style="edgeStyle=none;rounded=0;orthogonalLoop=1;jettySize=auto;html=1;entryX=1;entryY=0.5;entryDx=0;entryDy=0;strokeColor=default;align=center;verticalAlign=middle;fontFamily=Helvetica;fontSize=11;fontColor=default;labelBackgroundColor=default;endArrow=none;endFill=0;" edge="1" parent="1" source="aRzllNHfJS_ZqXTawcoJ-9" target="AveuHuQOkIJUVtSDtsbW-5">
          <mxGeometry relative="1" as="geometry" />
        </mxCell>
        <mxCell id="aRzllNHfJS_ZqXTawcoJ-9" value="LocatedIn" style="rhombus;whiteSpace=wrap;html=1;fontFamily=Helvetica;fontSize=11;fontColor=default;" vertex="1" parent="1">
          <mxGeometry x="753" y="31" width="80" height="80" as="geometry" />
        </mxCell>
        <mxCell id="aRzllNHfJS_ZqXTawcoJ-13" value="" style="edgeStyle=none;rounded=0;orthogonalLoop=1;jettySize=auto;html=1;strokeColor=default;align=center;verticalAlign=middle;fontFamily=Helvetica;fontSize=11;fontColor=default;labelBackgroundColor=default;endArrow=none;endFill=0;" edge="1" parent="1" source="aRzllNHfJS_ZqXTawcoJ-12" target="aRzllNHfJS_ZqXTawcoJ-3">
          <mxGeometry relative="1" as="geometry" />
        </mxCell>
        <mxCell id="aRzllNHfJS_ZqXTawcoJ-14" value="" style="edgeStyle=none;rounded=0;orthogonalLoop=1;jettySize=auto;html=1;strokeColor=default;align=center;verticalAlign=middle;fontFamily=Helvetica;fontSize=11;fontColor=default;labelBackgroundColor=default;endArrow=none;endFill=0;exitX=0.5;exitY=1;exitDx=0;exitDy=0;" edge="1" parent="1" source="aRzllNHfJS_ZqXTawcoJ-12" target="AveuHuQOkIJUVtSDtsbW-4">
          <mxGeometry relative="1" as="geometry" />
        </mxCell>
        <mxCell id="aRzllNHfJS_ZqXTawcoJ-12" value="Produces" style="rhombus;whiteSpace=wrap;html=1;fontFamily=Helvetica;fontSize=11;fontColor=default;" vertex="1" parent="1">
          <mxGeometry x="929" y="148" width="80" height="80" as="geometry" />
        </mxCell>
      </root>
    </mxGraphModel>
  </diagram>
</mxfile>
